<svg xmlns="http://www.w3.org/2000/svg" xmlns:xlink="http://www.w3.org/1999/xlink" width="20" height="20" version="1.1" style=""><rect id="backgroundrect" width="100%" height="100%" x="0" y="0" fill="none" stroke="none"/>
    <title>devto</title>
    
<g class="currentLayer" style=""><title>Layer 1</title><g id="Welcome" stroke="none" stroke-width="1" fill="#444444" fill-rule="evenodd" class="selected" fill-opacity="1">
        <g id="Contact" fill="#444444" fill-rule="nonzero">
            <g id="Icons" fill="#444444">
                <g id="devto" fill="#444444">
                    <path d="M5.362499999999997,7.870089290000003 C5.189285710000007,7.740625000000001 5.015625,7.6758928599999985 4.842410709999996,7.6758928599999985 L4.063839290000004,7.6758928599999985 L4.063839290000004,12.339732099999999 L4.842857140000007,12.339732099999999 C5.016071429999997,12.339732099999999 5.189732140000004,12.274999999999999 5.362946429999994,12.145535699999996 C5.536160710000004,12.016071400000001 5.622767859999996,11.821874999999999 5.622767859999996,11.5625 L5.622767859999996,8.453125 C5.6223214299999995,8.194196429999998 5.535267860000005,7.999553570000003 5.362499999999997,7.870089290000003 L5.362499999999997,7.870089290000003 zM18.040178600000004,0 L1.9598214300000052,0 C0.879464286000001,0 0.0026785714299961683,0.874553571000007 0,1.9553571400000038 L0,18.0446429 C0.0026785714299961683,19.1254464 0.879464286000001,20 1.9598214300000052,20 L18.040178600000004,20 C19.120982099999992,20 19.997321400000004,19.1254464 20,18.0446429 L20,1.9553571400000038 C19.997321400000004,0.874553571000007 19.120535700000005,0 18.040178600000004,0 L18.040178600000004,0 zM6.883928569999995,11.570982100000002 C6.883928569999995,12.410714300000002 6.365624999999994,13.683035699999998 4.724999999999994,13.680361400000002 L2.6535714299999995,13.680361400000002 L2.6535714299999995,6.293750000000003 L4.768749999999997,6.293750000000003 C6.350892860000002,6.293750000000003 6.8830357100000015,7.56428571 6.883482139999998,8.40446429 L6.883928569999995,11.570982100000002 zM11.378571399999998,7.612946430000001 L9,7.612946430000001 L9,9.328125 L10.454017899999997,9.328125 L10.454017899999997,10.6482143 L9,10.6482143 L9,12.362946399999998 L11.379017900000008,12.362946399999998 L11.379017900000008,13.683035699999998 L8.603125000000006,13.683035699999998 C8.104910709999999,13.695982100000002 7.690624999999997,13.302232099999998 7.678124999999994,12.804017899999998 L7.678124999999994,7.21875 C7.666071430000002,6.720982140000004 8.060267859999996,6.307589290000003 8.558035709999999,6.29508929 L11.379017900000008,6.29508929 L11.378571399999998,7.612946430000001 zM16.005357099999998,12.7598214 C15.416071399999993,14.1325893 14.360267899999997,13.859375 13.887500000000003,12.7598214 L12.167410700000005,6.295535710000003 L13.621428600000002,6.295535710000003 L14.947767900000002,11.372321400000004 L16.2678571,6.295535710000003 L17.7223214,6.295535710000003 L16.005357099999998,12.7598214 z" id="Shape" fill="#444444"/>
                </g>
            </g>
        </g>
    </g></g></svg>