<svg xmlns="http://www.w3.org/2000/svg" xmlns:xlink="http://www.w3.org/1999/xlink" width="23" height="20" version="1.1" style=""><rect id="backgroundrect" width="100%" height="100%" x="0" y="0" fill="none" stroke="none"/>
    <title>linkedin-icon</title>
    
<g class="currentLayer" style=""><title>Layer 1</title><g id="Welcome" stroke="none" stroke-width="1" fill="#444444" fill-rule="evenodd" class="selected" fill-opacity="1">
        <g id="Contact" fill="#444444" fill-rule="nonzero" fill-opacity="1">
            <g id="Icons" fill="#444444" fill-opacity="1">
                <g id="linkedin-icon" fill="#444444" fill-opacity="1">
                    <path d="M22.8306482,16.249166700000004 C22.8306482,15.704999999999998 22.4096019,15.278888899999998 21.8719032,15.278888899999998 C21.334478999999998,15.278888899999998 20.9131581,15.704999999999998 20.9131581,16.249166700000004 C20.9131581,16.7933333 21.334478999999998,17.2194444 21.8719032,17.2194444 C22.4096019,17.2194444 22.8306482,16.7933333 22.8306482,16.249166700000004 zM23,16.249166700000004 C23,16.8897222 22.5067664,17.390833299999997 21.8719032,17.390833299999997 C21.2373144,17.390833299999997 20.7438064,16.8897222 20.7438064,16.249166700000004 C20.7438064,15.608888899999997 21.2373144,15.107500000000002 21.8719032,15.107500000000002 C22.5067664,15.107500000000002 23,15.608888899999997 23,16.249166700000004 zM21.9523247,16.226666699999996 C22.0901117,16.226666699999996 22.1724545,16.154166700000005 22.1724545,16.032777800000005 C22.1724545,15.919166699999998 22.0923075,15.8541667 21.9523247,15.8541667 L21.6300898,15.8541667 L21.6300898,16.226666699999996 L21.9523247,16.226666699999996 zM22.103561,16.3669444 L22.4219533,16.82 L22.1812378,16.82 L21.8787651,16.385277799999997 L21.6300898,16.385277799999997 L21.6300898,16.82 L21.4349372,16.82 L21.4349372,15.678611099999998 L21.9841639,15.678611099999998 C22.2281732,15.678611099999998 22.3736455,15.807777799999997 22.3736455,16.0244444 C22.3736455,16.186111100000005 22.2781278,16.3122222 22.1186572,16.362222200000005 L22.103561,16.3669444 zM16.843500899999995,11.138055600000001 C16.843500899999995,8.220277789999997 15.051995300000002,7.225000000000001 13.394159600000002,7.225000000000001 C11.8612106,7.225000000000001 10.857725899999998,8.229166660000004 10.570074900000002,8.816944450000001 L10.532471700000002,8.816944450000001 L10.532471700000002,7.493611110000003 L7.675175440000004,7.493611110000003 L7.675175440000004,17.0455556 L10.646104800000003,17.0455556 L10.646104800000003,11.866944400000001 C10.646104800000003,10.486111100000002 11.5104301,9.814444449999996 12.392047399999996,9.814444449999996 C13.2259058,9.814444449999996 13.8725715,10.289166700000003 13.8725715,11.828611100000003 L13.8725715,17.0455556 L16.843500899999995,17.0455556 L16.843500899999995,11.138055600000001 zM6.11779799,4.4369444499999995 C6.11779799,3.4397222099999993 5.35063727,2.7102777900000063 4.40479259,2.7102777900000063 C3.4586734399999983,2.7102777900000063 2.6917872000000003,3.4397222099999993 2.6917872000000003,4.4369444499999995 C2.6917872000000003,5.4341666600000025 3.4586734399999983,6.16277779 4.40479259,6.16277779 C5.35063727,6.16277779 6.11779799,5.4341666600000025 6.11779799,4.4369444499999995 zM2.919327899999999,17.038333300000005 L5.890257300000002,17.038333300000005 L5.890257300000002,7.4863888900000015 L2.919327899999999,7.4863888900000015 L2.919327899999999,17.038333300000005 zM19.7628288,1.4763888899999957 L19.7628288,18.523611099999997 C19.7628288,19.3388889 19.1095756,20 18.3039883,20 L1.4588405200000025,20 C0.6532531390000003,20 0,19.3388889 0,18.523611099999997 L0,1.4763888899999957 C0,0.6611111109999969 0.6532531390000003,0 1.4588405200000025,0 L18.3039883,0 C19.1095756,0 19.7628288,0.6611111109999969 19.7628288,1.4763888899999957 L19.7628288,1.4763888899999957 z" id="Fill-1" fill="#444444" fill-opacity="1"/>
                </g>
            </g>
        </g>
    </g></g></svg>