<svg xmlns="http://www.w3.org/2000/svg" xmlns:xlink="http://www.w3.org/1999/xlink" width="26" height="20" version="1.1" style=""><rect id="backgroundrect" width="100%" height="100%" x="0" y="0" fill="none" stroke="none"/>
    <title>twitter-icon</title>
    
<g class="currentLayer" style=""><title>Layer 1</title><g id="Welcome" stroke="none" stroke-width="1" fill="#00ebc7" fill-rule="evenodd" class="selected" fill-opacity="1">
        <g id="Contact" fill="#00ebc7" fill-rule="nonzero" stroke="none" stroke-opacity="1" fill-opacity="1">
            <g id="Icons" stroke="none" stroke-opacity="1" fill="#00ebc7" fill-opacity="1">
                <g id="twitter-icon" stroke="none" stroke-opacity="1" fill="#00ebc7" fill-opacity="1">
                    <path d="M26.018165305256844,2.410197046047557 C25.042199305256844,2.813052126047552 24.012265105256844,3.082461556047548 22.958434305256844,3.2105592360475583 C24.075841605256844,2.585080106047556 24.914289905256844,1.5860826760475533 25.313655705256842,0.40435107404755444 C24.260483405256842,0.994741676047553 23.111388405256843,1.4106130860475476 21.914526005256842,1.6345373960475484 C20.417570805256844,0.10937178794755208 18.107519805256842,-0.3914085409524407 16.073910305256845,0.3683898170475576 C14.040300905256844,1.1281881760475585 12.689335005256844,2.996799756047551 12.658196905256844,5.092892516047556 C12.665362605256844,5.480890986047555 12.717100205256843,5.866943016047557 12.812469005256844,6.244030726047555 C8.541631805256843,6.049756816047555 4.555434615256843,4.12952610604755 1.8385766952568439,0.9576878950475557 C1.3653363052568437,1.727327576047557 1.1116891152568442,2.6032434860475604 1.1032127652568438,3.4971086560475584 C1.1087171652568433,5.190705656047555 1.9993439752568438,6.768386046047553 3.473861515256843,7.6965398660475515 C2.623223345256843,7.683505046047557 1.7892396852568435,7.467917076047556 1.0466463152568437,7.069095446047555 L1.0466463152568437,7.138262536047556 C1.0518725752568443,7.754052326047557 1.1810944552568436,8.363050806047553 1.4271842852568426,8.931666706047551 C2.0975761952568437,10.542696086047556 3.573247195256844,11.716698986047554 5.345696945256844,12.049126886047553 C4.887089655256844,12.172947286047552 4.413049865256845,12.236108786047552 3.936677955256844,12.236866086047556 C3.5993580252568442,12.234861186047553 3.263214665256843,12.198426186047556 2.933908965256844,12.128174986047554 C3.6549302452568426,14.192721986047552 5.645684935256844,15.601482486047551 7.911757055256845,15.650756686047558 C6.019156565256843,17.05964438604755 3.6928778052568436,17.824322586047558 1.298624165256843,17.82457988604756 C0.8615197352568433,17.82457988604756 0.45526973625684364,17.79493688604755 0.018165305256843567,17.755412786047557 C2.4682815452568434,19.232609086047553 5.301983605256844,20.01681088604755 8.194589345256844,20.018165186047554 C16.525285505256843,20.018165186047554 21.672833005256845,14.479856486047552 23.015000705256842,8.719224886047556 C23.250275005256842,7.718864886047555 23.369278505256844,6.696511066047556 23.369826705256845,5.670931886047555 L23.369826705256845,5.023725406047554 C24.403195705256845,4.3061508660475605 25.299245005256843,3.4218794760475504 26.018165305256844,2.410197046047557 z" id="Path" stroke="none" stroke-opacity="1" fill="#00ebc7" fill-opacity="1"/>
                </g>
            </g>
        </g>
    </g></g></svg>